<svg width="100" height="101" viewBox="0 0 100 101" fill="none" xmlns="http://www.w3.org/2000/svg">
<g clip-path="url(#clip0_308_2722)">
<path d="M85 0.869141H15C6.71573 0.869141 0 7.58487 0 15.8691V85.8691C0 94.1534 6.71573 100.869 15 100.869H85C93.2843 100.869 100 94.1534 100 85.8691V15.8691C100 7.58487 93.2843 0.869141 85 0.869141Z" fill="#DAEEFF"/>
<path d="M30.8594 77.2363V49.502L14.8438 37.1973V71.377C14.8438 75.2832 16.7969 77.2363 20.7031 77.2363" fill="#4285F4"/>
<path d="M30.0781 49.3066L50 64.3457L69.9219 49.3066V30.166L50 45.2051L30.0781 30.166" fill="#EA4335"/>
<path d="M69.1406 77.2363V49.502L85.1562 37.1973V71.377C85.1562 75.2832 83.2031 77.2363 79.2969 77.2363" fill="#34A853"/>
<path d="M14.8438 37.5874L30.8594 49.892V30.7514L25 26.2592C19.7266 22.1577 14.8438 26.2592 14.8438 31.3374" fill="#C5221F"/>
<path d="M85.1562 37.5874L69.1406 49.892V30.7514L75 26.2592C80.2734 22.1577 85.1562 26.2592 85.1562 31.3374" fill="#FBBC04"/>
</g>
<defs>
<clipPath id="clip0_308_2722">
<rect y="0.869141" width="100" height="100" rx="50" fill="white"/>
</clipPath>
</defs>
</svg>
