<svg width="19" height="16" viewBox="0 0 19 16" fill="none" xmlns="http://www.w3.org/2000/svg">
<path d="M6.08301 15.5C5.55523 15.5 5.10384 15.309 4.72884 14.9271C4.35384 14.5451 4.16634 14.0903 4.16634 13.5625V5.83333L2.64551 2.16667H0.833008V0.5H3.77051L5.14551 3.83333H17.458C17.7775 3.83333 18.0205 3.96528 18.1872 4.22917C18.3538 4.49306 18.3608 4.76389 18.208 5.04167L15.833 9.6875C16.5413 9.79861 17.1351 10.125 17.6143 10.6667C18.0934 11.2083 18.333 11.8472 18.333 12.5833C18.333 13.3889 18.0518 14.0764 17.4893 14.6458C16.9268 15.2153 16.2427 15.5 15.4372 15.5C14.6177 15.5 13.9268 15.2153 13.3643 14.6458C12.8018 14.0764 12.5205 13.3889 12.5205 12.5833C12.5205 12.3056 12.5552 12.0486 12.6247 11.8125C12.6941 11.5764 12.7913 11.3472 12.9163 11.125L10.1872 10.875L7.68717 14.625C7.50662 14.9028 7.27398 15.1181 6.98926 15.2708C6.70454 15.4236 6.40245 15.5 6.08301 15.5ZM14.0413 9.5625L16.1038 5.5H5.83301L6.87467 8C6.98579 8.27778 7.16287 8.51042 7.40592 8.69792C7.64898 8.88542 7.93023 8.99306 8.24967 9.02083L14.0413 9.5625ZM6.10384 13.8125C6.13162 13.8125 6.19412 13.7778 6.29134 13.7083L8.31217 10.7083C7.63162 10.6389 7.0969 10.4757 6.70801 10.2188C6.31912 9.96181 6.02745 9.69444 5.83301 9.41667V13.5833C5.83301 13.6528 5.86079 13.7083 5.91634 13.75C5.9719 13.7917 6.0344 13.8125 6.10384 13.8125ZM15.4163 13.8333C15.7775 13.8333 16.0761 13.7118 16.3122 13.4688C16.5483 13.2257 16.6663 12.9306 16.6663 12.5833C16.6663 12.2222 16.5483 11.9236 16.3122 11.6875C16.0761 11.4514 15.7775 11.3333 15.4163 11.3333C15.0691 11.3333 14.774 11.4514 14.5309 11.6875C14.2879 11.9236 14.1663 12.2222 14.1663 12.5833C14.1663 12.9306 14.2879 13.2257 14.5309 13.4688C14.774 13.7118 15.0691 13.8333 15.4163 13.8333Z" fill="white"/>
</svg>
