<svg width="24" height="24" viewBox="0 0 24 24" fill="none" xmlns="http://www.w3.org/2000/svg">
<path fill-rule="evenodd" clip-rule="evenodd" d="M5.29596 0.460938C4.0137 0.460937 2.78392 0.970188 1.87705 1.87671C0.970176 2.78324 0.460453 4.01282 0.459961 5.29508V18.1911C0.459961 19.4737 0.969467 20.7037 1.87639 21.6107C2.78332 22.5176 4.01337 23.0271 5.29596 23.0271H18.192C19.4742 23.0266 20.7038 22.5169 21.6103 21.61C22.5169 20.7031 23.0261 19.4733 23.0261 18.1911V5.29508C23.0256 4.01314 22.5161 2.78384 21.6097 1.87737C20.7032 0.970898 19.4739 0.46143 18.192 0.460938H5.29596ZM19.583 5.30251C19.583 5.67192 19.4362 6.0262 19.175 6.28741C18.9138 6.54862 18.5595 6.69537 18.1901 6.69537C17.8207 6.69537 17.4664 6.54862 17.2052 6.28741C16.944 6.0262 16.7972 5.67192 16.7972 5.30251C16.7972 4.9331 16.944 4.57882 17.2052 4.31761C17.4664 4.0564 17.8207 3.90965 18.1901 3.90965C18.5595 3.90965 18.9138 4.0564 19.175 4.31761C19.4362 4.57882 19.583 4.9331 19.583 5.30251ZM11.7458 7.88022C10.7213 7.88022 9.73879 8.2872 9.01437 9.01163C8.28994 9.73605 7.88296 10.7186 7.88296 11.7431C7.88296 12.7676 8.28994 13.7501 9.01437 14.4745C9.73879 15.199 10.7213 15.6059 11.7458 15.6059C12.7703 15.6059 13.7528 15.199 14.4773 14.4745C15.2017 13.7501 15.6087 12.7676 15.6087 11.7431C15.6087 10.7186 15.2017 9.73605 14.4773 9.01163C13.7528 8.2872 12.7703 7.88022 11.7458 7.88022ZM6.02396 11.7431C6.02396 10.226 6.6266 8.77114 7.69931 7.69843C8.77202 6.62572 10.2269 6.02308 11.744 6.02308C13.261 6.02308 14.7159 6.62572 15.7886 7.69843C16.8613 8.77114 17.464 10.226 17.464 11.7431C17.464 13.2601 16.8613 14.715 15.7886 15.7877C14.7159 16.8604 13.261 17.4631 11.744 17.4631C10.2269 17.4631 8.77202 16.8604 7.69931 15.7877C6.6266 14.715 6.02396 13.2601 6.02396 11.7431Z" fill="white"/>
</svg>
